<svg width="400" height="300" xmlns="http://www.w3.org/2000/svg">
  <!-- Background -->
  <rect width="400" height="300" fill="#f5f5f5"/>
  
  <!-- Tree Trunk -->
  <path d="M180 300 L180 150 Q180 140 190 130 L210 130 Q220 140 220 150 L220 300 Z" fill="#8B4513"/>
  
  <!-- Tree Crown -->
  <g fill="#e53935">
    <!-- Main Crown Shape -->
    <ellipse cx="200" cy="120" rx="90" ry="80" fill="#d32f2f"/>
    
    <!-- Maple Leaf Shapes -->
    <path d="M200 40 L220 70 L250 60 L230 90 L260 110 L220 110 L200 150 L180 110 L140 110 L170 90 L150 60 L180 70 Z" fill="#e53935"/>
    <path d="M140 100 L160 130 L190 120 L170 150 L200 170 L160 170 L140 210 L120 170 L80 170 L110 150 L90 120 L120 130 Z" fill="#e53935" transform="scale(0.7) translate(50, 0)"/>
    <path d="M260 100 L280 130 L310 120 L290 150 L320 170 L280 170 L260 210 L240 170 L200 170 L230 150 L210 120 L240 130 Z" fill="#e53935" transform="scale(0.7) translate(50, 0)"/>
  </g>
  
  <!-- Maple Seeds (Samaras) -->
  <g>
    <path d="M150 180 Q140 190 145 200 L155 195 Q160 185 150 180" fill="#8B4513"/>
    <path d="M250 170 Q260 180 255 190 L245 185 Q240 175 250 170" fill="#8B4513"/>
    <path d="M180 150 Q170 160 175 170 L185 165 Q190 155 180 150" fill="#8B4513"/>
  </g>
  
  <!-- Text Label -->
  <text x="200" y="280" font-family="Arial" font-size="24" text-anchor="middle" fill="#333">Maple Tree</text>
</svg>