<svg width="400" height="300" xmlns="http://www.w3.org/2000/svg">
  <!-- Background -->
  <rect width="400" height="300" fill="#f5f5f5"/>
  
  <!-- Tree Trunk -->
  <path d="M180 300 L180 150 Q180 140 190 130 L210 130 Q220 140 220 150 L220 300 Z" fill="#8B4513"/>
  
  <!-- Tree Crown -->
  <g fill="#2e7d32">
    <!-- Main Crown -->
    <ellipse cx="200" cy="120" rx="100" ry="80"/>
    
    <!-- Oak Leaf Shapes -->
    <path d="M140 160 Q120 140 100 150 Q90 160 100 170 Q120 180 140 160" fill="#2e7d32"/>
    <path d="M260 160 Q280 140 300 150 Q310 160 300 170 Q280 180 260 160" fill="#2e7d32"/>
    <path d="M200 60 Q220 40 240 50 Q250 60 240 70 Q220 80 200 60" fill="#2e7d32"/>
    <path d="M160 70 Q140 50 120 60 Q110 70 120 80 Q140 90 160 70" fill="#2e7d32"/>
  </g>
  
  <!-- Acorns -->
  <g>
    <ellipse cx="150" cy="180" rx="8" ry="12" fill="#8B4513"/>
    <ellipse cx="150" cy="172" rx="6" ry="3" fill="#A0522D"/>
    
    <ellipse cx="250" cy="170" rx="8" ry="12" fill="#8B4513"/>
    <ellipse cx="250" cy="162" rx="6" ry="3" fill="#A0522D"/>
    
    <ellipse cx="180" cy="140" rx="8" ry="12" fill="#8B4513"/>
    <ellipse cx="180" cy="132" rx="6" ry="3" fill="#A0522D"/>
  </g>
  
  <!-- Text Label -->
  <text x="200" y="280" font-family="Arial" font-size="24" text-anchor="middle" fill="#333">Oak Tree</text>
</svg>