<svg width="400" height="300" xmlns="http://www.w3.org/2000/svg">
  <!-- Background -->
  <rect width="400" height="300" fill="#f5f5f5"/>
  
  <!-- Palm Tree Trunk -->
  <path d="M190 300 C 180 250, 190 200, 200 150 C 210 200, 220 250, 210 300 Z" fill="#8d6e63"/>
  
  <!-- Trunk Texture -->
  <g fill="#6d4c41">
    <rect x="195" y="160" width="10" height="5" rx="2"/>
    <rect x="193" y="180" width="14" height="5" rx="2"/>
    <rect x="192" y="200" width="16" height="5" rx="2"/>
    <rect x="190" y="220" width="20" height="5" rx="2"/>
    <rect x="188" y="240" width="24" height="5" rx="2"/>
    <rect x="186" y="260" width="28" height="5" rx="2"/>
    <rect x="184" y="280" width="32" height="5" rx="2"/>
  </g>
  
  <!-- Palm Fronds -->
  <g fill="#43a047">
    <!-- Left Side Fronds -->
    <path d="M200 150 C 180 140, 150 120, 120 130 C 140 140, 160 150, 200 150" fill="#43a047"/>
    <path d="M200 150 C 170 130, 130 100, 100 120 C 130 130, 160 140, 200 150" fill="#43a047"/>
    <path d="M200 150 C 160 120, 120 80, 90 110 C 120 120, 160 130, 200 150" fill="#43a047"/>
    <path d="M200 150 C 150 110, 110 60, 80 100 C 110 110, 150 120, 200 150" fill="#43a047"/>
    
    <!-- Right Side Fronds -->
    <path d="M200 150 C 220 140, 250 120, 280 130 C 260 140, 240 150, 200 150" fill="#43a047"/>
    <path d="M200 150 C 230 130, 270 100, 300 120 C 270 130, 240 140, 200 150" fill="#43a047"/>
    <path d="M200 150 C 240 120, 280 80, 310 110 C 280 120, 240 130, 200 150" fill="#43a047"/>
    <path d="M200 150 C 250 110, 290 60, 320 100 C 290 110, 250 120, 200 150" fill="#43a047"/>
    
    <!-- Top Fronds -->
    <path d="M200 150 C 190 120, 180 80, 170 50 C 190 80, 200 100, 200 150" fill="#43a047"/>
    <path d="M200 150 C 210 120, 220 80, 230 50 C 210 80, 200 100, 200 150" fill="#43a047"/>
  </g>
  
  <!-- Coconuts -->
  <g fill="#795548">
    <circle cx="190" cy="160" r="8" fill="#5d4037"/>
    <circle cx="210" cy="165" r="8" fill="#5d4037"/>
    <circle cx="200" cy="155" r="8" fill="#5d4037"/>
  </g>
  
  <!-- Text Label -->
  <text x="200" y="280" font-family="Arial" font-size="24" text-anchor="middle" fill="#333">Palm Tree</text>
</svg>